<svg id="Layer_1" data-name="Layer 1" xmlns="http://www.w3.org/2000/svg" viewBox="0 0 368 199"><defs><style>.cls-1{fill-rule:evenodd;}</style></defs><path d="M179.11,188.65V166.19a23.43,23.43,0,0,1,10.46-2.52,10.39,10.39,0,0,1,7.31,2.43,8.64,8.64,0,0,1,2.65,6.72v15.83h-4.59V172.47a5,5,0,0,0-1.11-3.42c-.74-.83-2.22-1.25-4.45-1.25a18.88,18.88,0,0,0-5.78.89v20Z"/><path d="M205.63,176.67q0-13,10.83-12.95h0a10.11,10.11,0,0,1,7.86,3.22,12.26,12.26,0,0,1,2.95,8.61c0,1.17,0,2.3-.15,3.37h-17q.82,6.32,6.92,6.32a18,18,0,0,0,8.48-1.85v4.09a21.82,21.82,0,0,1-8.57,1.6h-.15a13.93,13.93,0,0,1-4-.54,11.8,11.8,0,0,1-3.56-1.79,8.21,8.21,0,0,1-2.72-3.84A17.26,17.26,0,0,1,205.63,176.67Zm4.51-1.78h12.61a11,11,0,0,0-.42-2.34,9.86,9.86,0,0,0-1-2.27,4.84,4.84,0,0,0-1.91-1.84,6.08,6.08,0,0,0-3-.69,5.88,5.88,0,0,0-4.55,1.6C210.94,170.42,210.35,172.26,210.14,174.89Z"/><path d="M230.1,168V164.1h4.28v-7.28h4.49v7.28h6.53V168h-6.53v14.18q0,2.87,3.63,2.87h0a5.37,5.37,0,0,0,2.86-.72v4.07A8.77,8.77,0,0,1,242,189h-.12a9.35,9.35,0,0,1-1.9-.21,12.85,12.85,0,0,1-2.41-.85,5.18,5.18,0,0,1-2.32-2.21,7.59,7.59,0,0,1-.91-3.89V168Z"/><path d="M249.22,164.1h4.59l5.88,18.16,5.41-18.16h4.15l5.48,18.17,5.11-18.17h4.59l-7.74,24.55h-4.1L267.05,171l-5.58,17.62H257Z"/><path d="M289.77,182.74a19.84,19.84,0,0,1,0-12.68,8.61,8.61,0,0,1,2.82-3.91,11.67,11.67,0,0,1,3.66-1.84,15.72,15.72,0,0,1,8.17,0,11.62,11.62,0,0,1,3.65,1.84,8.61,8.61,0,0,1,2.82,3.91,19.84,19.84,0,0,1,0,12.68,8.61,8.61,0,0,1-2.82,3.91,11.62,11.62,0,0,1-3.65,1.84,15.72,15.72,0,0,1-8.17,0,11.67,11.67,0,0,1-3.66-1.84A8.61,8.61,0,0,1,289.77,182.74Zm4.09-10.87a19.27,19.27,0,0,0,0,9.06,5.24,5.24,0,0,0,1.62,2.64,5.88,5.88,0,0,0,2.18,1.14,10.73,10.73,0,0,0,2.67.29,10.87,10.87,0,0,0,2.68-.29,6,6,0,0,0,2.18-1.14,5.16,5.16,0,0,0,1.61-2.64,19.27,19.27,0,0,0,0-9.06,5.09,5.09,0,0,0-1.61-2.63,5.84,5.84,0,0,0-2.18-1.15,10.87,10.87,0,0,0-2.68-.29,10.73,10.73,0,0,0-2.67.29,5.77,5.77,0,0,0-2.18,1.15A5.16,5.16,0,0,0,293.86,171.87Z"/><path d="M317.82,188.65V166.17a32,32,0,0,1,12-2.45v4.13a31.66,31.66,0,0,0-7.47,1v19.77Z"/><path d="M335,188.65V154.76h4.5v19.62l10.61-10.28h6.1l-10.66,10.24,12.08,14.31h-6l-9.1-11.41-3.05,3v8.45Z"/><circle cx="25.43" cy="64.95" r="7.76" transform="translate(-22.92 14.67) rotate(-22.5)"/><path class="cls-1" d="M25.37,80.3a8,8,0,0,0-8,7.81v54.66h16V88.11A8,8,0,0,0,25.37,80.3Z"/><path d="M50.93,144.18V87.34a63.81,63.81,0,0,1,28.78-6.87q13.14,0,20.53,6.84t7.4,19.18v37.69H92.54v-39a16.16,16.16,0,0,0-.46-4.2,10.82,10.82,0,0,0-1.84-3.53,8.36,8.36,0,0,0-4.51-2.76,29.32,29.32,0,0,0-8-.92A66.61,66.61,0,0,0,66,94.89v49.29Z"/><path d="M125.44,124V57.33h15.1V81.45a58.12,58.12,0,0,1,10.31-1q14,0,21.51,8.15t7.52,23.46a45.69,45.69,0,0,1-2.2,14.85,28.45,28.45,0,0,1-5.19,9.75,24.21,24.21,0,0,1-7.18,5.41,26.31,26.31,0,0,1-7.28,2.58,39,39,0,0,1-6.2.49q-13.44,0-19.92-6.21A19.94,19.94,0,0,1,125.44,124Zm15.1,1.42q0,6.76,11.29,6.77,7.18,0,10.07-4.89t2.88-16q0-10.59-3.71-14.81T150.3,92.25a40.71,40.71,0,0,0-9.76,1Z"/><path d="M196.7,144.18V57.58h15.1v86.6Z"/><path d="M236.1,136.81q-7.66-8.34-7.67-23.93t7.67-23.94q7.68-8.34,22-8.35t22,8.35q7.68,8.36,7.67,23.94t-7.67,23.93q-7.67,8.35-22,8.35T236.1,136.81Zm11-39.71q-3.59,4.13-3.59,15.81t3.59,15.77q3.58,4.08,11,4.08t11-4.08q3.57-4.08,3.56-15.77T269.12,97.1q-3.56-4.11-11-4.11T247.12,97.1Z"/><path d="M295.39,144.18l22.28-31.67L296,81.45h18.47l12.52,17.86,12.59-17.86h16.75l-21,29.65,23.2,33.08H340l-14.06-20-14.18,20Z"/></svg>