<?xml version="1.0" encoding="UTF-8"?>
<svg width="14px" height="5px" viewBox="0 0 14 5" version="1.1" xmlns="http://www.w3.org/2000/svg" xmlns:xlink="http://www.w3.org/1999/xlink">
    <title>Arr icon</title>
    <g id="Newtwork-Website" stroke="none" stroke-width="1" fill="none" fill-rule="evenodd">
        <g id="M.web" transform="translate(-189.000000, -1542.000000)" fill="#005CDA" fill-rule="nonzero">
            <g id="Mission" transform="translate(18.000000, 1200.000000)">
                <g id="View-More-Btn-Copy" transform="translate(88.000000, 335.000000)">
                    <path d="M83.3691406,9.81640625 C83.2688797,9.81640625 83.182292,9.77994828 83.109375,9.70703125 C83.036458,9.63411422 83,9.5429693 83,9.43359375 C83,9.3242182 83.036458,9.23079466 83.109375,9.15332031 C83.182292,9.07584597 83.2688797,9.03710938 83.3691406,9.03710938 L94.9765625,9.03710938 L93.5957031,7.65625 C93.5136715,7.58333297 93.4726562,7.49446667 93.4726562,7.38964844 C93.4726562,7.28483021 93.5136715,7.19140666 93.5957031,7.109375 C93.6321616,7.07291648 93.6731769,7.04557301 93.71875,7.02734375 C93.7643231,7.00911449 93.8098956,7 93.8554688,7 C93.9101565,7 93.9602862,7.00911449 94.0058594,7.02734375 C94.0514325,7.04557301 94.0924477,7.07291648 94.1289062,7.109375 L96.1796875,9.16015625 L96.453125,9.41992188 L94.1289062,11.7441406 C94.0468746,11.8170577 93.953451,11.8535156 93.8486328,11.8535156 C93.7438146,11.8535156 93.6549483,11.8170577 93.5820312,11.7441406 C93.5,11.6712236 93.4589844,11.5823573 93.4589844,11.4775391 C93.4589844,11.3727208 93.5,11.2792973 93.5820312,11.1972656 L94.9765625,9.81640625 L83.3691406,9.81640625 Z" id="Arr-icon"></path>
                </g>
            </g>
        </g>
    </g>
</svg>