<?xml version="1.0" encoding="UTF-8"?>
<svg width="36px" height="26px" viewBox="0 0 36 26" version="1.1" xmlns="http://www.w3.org/2000/svg" xmlns:xlink="http://www.w3.org/1999/xlink">
    <title>sound on</title>
    <defs>
        <polygon id="path-1" points="0.02691 0.0307 1.38841 0.0307 1.38841 25.89999 0.02691 25.89999"></polygon>
        <polygon id="path-3" points="0.03834 0.09509 1.4002 0.09509 1.4002 4.40219 0.03834 4.40219"></polygon>
    </defs>
    <g id="Newtwork-Website" stroke="none" stroke-width="1" fill="none" fill-rule="evenodd">
        <g id="HomePage" transform="translate(-1343.000000, -945.000000)">
            <g id="sound-on" transform="translate(1343.000000, 945.000000)">
                <path d="M0.68091,10.31175 C0.30461,10.31175 1e-05,10.61635 1e-05,10.99225 L1e-05,14.39615 C1e-05,14.77235 0.30461,15.07695 0.68091,15.07695 C1.05681,15.07695 1.36141,14.77235 1.36141,14.39615 L1.36141,10.99225 C1.36141,10.61635 1.05681,10.31175 0.68091,10.31175" id="Fill-1" fill="#FFFFFF"></path>
                <path d="M4.08706,7.52421 C3.71116,7.52421 3.40616,7.82921 3.40616,8.20521 L3.40616,17.63041 C3.40616,18.00681 3.71116,18.31141 4.08706,18.31141 C4.46296,18.31141 4.76796,18.00681 4.76796,17.63041 L4.76796,8.20521 C4.76796,7.82921 4.46296,7.52421 4.08706,7.52421" id="Fill-3" fill="#FFFFFF"></path>
                <path d="M7.48853,2.82328 C7.11263,2.82328 6.80753,3.12788 6.80753,3.50378 L6.80753,22.56548 C6.80753,22.94148 7.11263,23.24638 7.48853,23.24638 C7.86443,23.24638 8.16943,22.94148 8.16943,22.56548 L8.16943,3.50378 C8.16943,3.12788 7.86443,2.82328 7.48853,2.82328" id="Fill-5" fill="#FFFFFF"></path>
                <path d="M10.89229,6.22704 C10.51639,6.22704 10.21139,6.53164 10.21139,6.90804 L10.21139,18.48084 C10.21139,18.85664 10.51639,19.16174 10.89229,19.16174 C11.26819,19.16174 11.57319,18.85664 11.57319,18.48084 L11.57319,6.90804 C11.57319,6.53164 11.26819,6.22704 10.89229,6.22704" id="Fill-7" fill="#FFFFFF"></path>
                <path d="M21.17031,4.57894 C20.79441,4.57894 20.48971,4.88354 20.48971,5.25984 L20.48971,20.57614 C20.48971,20.95194 20.79441,21.25664 21.17031,21.25664 C21.54621,21.25664 21.85121,20.95194 21.85121,20.57614 L21.85121,5.25984 C21.85121,4.88354 21.54621,4.57894 21.17031,4.57894" id="Fill-9" fill="#FFFFFF"></path>
                <path d="M27.91162,5.54613 C27.53572,5.54613 27.23072,5.85113 27.23072,6.22703 L27.23072,19.84223 C27.23072,20.21853 27.53572,20.52323 27.91162,20.52323 C28.28762,20.52323 28.59222,20.21853 28.59222,19.84223 L28.59222,6.22703 C28.59222,5.85113 28.28762,5.54613 27.91162,5.54613" id="Fill-11" fill="#FFFFFF"></path>
                <path d="M31.31543,8.94994 C30.93953,8.94994 30.63453,9.25494 30.63453,9.63084 L30.63453,16.43844 C30.63453,16.81444 30.93953,17.11934 31.31543,17.11934 C31.69143,17.11934 31.99603,16.81444 31.99603,16.43844 L31.99603,9.63084 C31.99603,9.25494 31.69143,8.94994 31.31543,8.94994" id="Fill-13" fill="#FFFFFF"></path>
                <g id="Group-17" transform="translate(23.800000, 0.069300)">
                    <mask id="mask-2" fill="white">
                        <use xlink:href="#path-1"></use>
                    </mask>
                    <g id="Clip-16"></g>
                    <path d="M0.70791,0.03069 C0.33151,0.03069 0.02691,0.33569 0.02691,0.71159 L0.02691,25.21909 C0.02691,25.59539 0.33151,25.89999 0.70791,25.89999 C1.08381,25.89999 1.38841,25.59539 1.38841,25.21909 L1.38841,0.71159 C1.38841,0.33569 1.08381,0.03069 0.70791,0.03069" id="Fill-15" fill="#FFFFFF" mask="url(#mask-2)"></path>
                </g>
                <path d="M14.29609,10.99227 C13.92019,10.99227 13.61559,11.29727 13.61559,11.67327 L13.61559,14.39617 C13.61559,14.77237 13.92019,15.07697 14.29609,15.07697 C14.67199,15.07697 14.97699,14.77237 14.97699,14.39617 L14.97699,11.67327 C14.97699,11.29727 14.67199,10.99227 14.29609,10.99227" id="Fill-18" fill="#FFFFFF"></path>
                <g id="Group-22" transform="translate(34.000000, 10.669300)">
                    <mask id="mask-4" fill="white">
                        <use xlink:href="#path-3"></use>
                    </mask>
                    <g id="Clip-21"></g>
                    <path d="M0.71924,0.09509 C0.34334,0.09509 0.03834,0.39969 0.03834,0.77569 L0.03834,3.72139 C0.03834,4.09719 0.34334,4.40219 0.71924,4.40219 C1.09514,4.40219 1.40024,4.09719 1.40024,3.72139 L1.40024,0.77569 C1.40024,0.39969 1.09514,0.09509 0.71924,0.09509" id="Fill-20" fill="#FFFFFF" mask="url(#mask-4)"></path>
                </g>
                <path d="M17.63599,9.46649 C17.25969,9.46649 16.95509,9.77109 16.95509,10.14699 L16.95509,15.68859 C16.95509,16.06449 17.25969,16.36949 17.63599,16.36949 C18.01189,16.36949 18.31649,16.06449 18.31649,15.68859 L18.31649,10.14699 C18.31649,9.77109 18.01189,9.46649 17.63599,9.46649" id="Fill-23" fill="#FFFFFF"></path>
            </g>
        </g>
    </g>
</svg>